<?xml version="1.0" standalone="no"?><!DOCTYPE svg PUBLIC "-//W3C//DTD SVG 1.1//EN" "http://www.w3.org/Graphics/SVG/1.1/DTD/svg11.dtd"><svg t="1665329413936" class="icon" viewBox="0 0 1024 1024" version="1.1" xmlns="http://www.w3.org/2000/svg" p-id="1495" xmlns:xlink="http://www.w3.org/1999/xlink" width="200" height="200"><path d="M755.2 457.8304c0-134.4-108.9536-243.3536-243.3536-243.3536S268.4928 323.4304 268.4928 457.8304c0 97.3824 57.1904 181.3504 139.8272 220.2112v68.9152h207.0016v-68.9152c82.688-38.8608 139.8784-122.8288 139.8784-220.2112z" fill="#F7D14A" p-id="1496"></path><path d="M509.952 174.08c-16.9472 0-30.72-13.7728-30.72-30.72V91.5968c0-16.9472 13.7728-30.72 30.72-30.72s30.72 13.7728 30.72 30.72V143.36c0 16.9472-13.7216 30.72-30.72 30.72zM346.112 214.528c-10.752 0-21.1968-5.632-26.8288-15.6672l-25.344-45.1072c-8.2944-14.7968-3.072-33.536 11.7248-41.8304s33.4848-3.072 41.8304 11.7248l25.344 45.1072c8.2944 14.7968 3.072 33.536-11.7248 41.8304-4.7104 2.6624-9.8816 3.9424-15.0016 3.9424zM231.0656 336.2304c-5.3248 0-10.7008-1.3824-15.5648-4.2496l-44.544-26.3168c-14.592-8.6016-19.456-27.4432-10.8544-42.0864 8.6016-14.592 27.4944-19.456 42.0864-10.8544l44.544 26.3168c14.592 8.6016 19.456 27.4432 10.8544 42.0864a30.91968 30.91968 0 0 1-26.5216 15.104zM183.9616 498.6368h-0.2048l-51.7632-0.3072a30.71488 30.71488 0 0 1-30.5152-30.9248c0.1024-16.896 13.824-30.5152 30.72-30.5152h0.2048l51.7632 0.3072c16.9472 0.1024 30.6176 13.9264 30.5152 30.9248a30.73536 30.73536 0 0 1-30.72 30.5152zM183.04 686.2336a30.69952 30.69952 0 0 1-15.7184-57.088l44.4928-26.4704c14.592-8.704 33.4336-3.8912 42.0864 10.7008 8.6528 14.592 3.8912 33.4336-10.7008 42.0864l-44.4928 26.4704c-4.9152 2.9184-10.3424 4.3008-15.6672 4.3008zM672.7168 214.528c-5.12 0-10.24-1.28-15.0016-3.9424a30.67904 30.67904 0 0 1-11.7248-41.8304l25.344-45.1072c8.2944-14.7968 27.0336-20.0192 41.8304-11.7248a30.67904 30.67904 0 0 1 11.7248 41.8304l-25.344 45.1072a30.7712 30.7712 0 0 1-26.8288 15.6672zM787.7632 336.2304c-10.496 0-20.736-5.376-26.4704-15.104-8.6528-14.592-3.7888-33.4336 10.8032-42.0864l44.544-26.3168a30.76096 30.76096 0 0 1 42.0864 10.8032c8.6528 14.592 3.7888 33.4336-10.8032 42.0864l-44.544 26.3168c-4.9152 2.9184-10.2912 4.3008-15.616 4.3008zM834.8672 498.6368c-16.896 0-30.6176-13.6192-30.72-30.5152-0.1024-16.9472 13.568-30.8224 30.5152-30.9248l51.7632-0.3072h0.2048c16.896 0 30.6176 13.6192 30.72 30.5152 0.1024 16.9472-13.568 30.8224-30.5152 30.9248l-51.7632 0.3072h-0.2048zM835.7888 686.2336c-5.3248 0-10.752-1.3824-15.6672-4.3008l-44.4928-26.4704c-14.592-8.6528-19.3536-27.5456-10.7008-42.0864a30.65344 30.65344 0 0 1 42.0864-10.7008l44.4928 26.4704a30.69952 30.69952 0 1 1-15.7184 57.088z" fill="#FF973D" p-id="1497"></path><path d="M438.4768 517.9904h33.024v199.8336h20.48v-199.8336h66.4576v199.8336h20.48v-199.8336h32.7168c15.0016 0 28.0064-8.8064 33.1264-22.4256s0.9728-28.416-10.496-37.6832l-17.9712-14.4896a35.8912 35.8912 0 0 0-37.5296-4.7104c-12.544 5.632-20.3264 17.4592-20.3264 30.8224v28.7232H491.9808v-28.928c0-13.312-7.7824-25.1392-20.2752-30.8224-12.4928-5.632-26.88-3.8912-37.4784 4.6592l-18.2784 14.6944c-11.5712 9.2672-15.7184 24.064-10.5984 37.7344 5.0688 13.6192 18.0736 22.4256 33.1264 22.4256z m140.4416-48.4864c0-5.6832 3.1744-10.496 8.4992-12.9024 5.3248-2.4064 11.2128-1.6896 15.7184 1.9968l17.9712 14.4896c7.3728 5.9392 5.2224 13.568 4.4032 15.7696-0.8192 2.2016-4.2496 9.3696-13.8752 9.3696h-32.7168V469.504z m-149.8624 3.5328l18.2784-14.6944a14.848 14.848 0 0 1 9.3184-3.328c2.1504 0 4.3008 0.4608 6.3488 1.3824 5.3248 2.4064 8.4992 7.2192 8.4992 12.9024v28.928h-33.024c-9.6256 0-13.056-7.2192-13.8752-9.4208-0.8192-2.2016-2.9696-9.8304 4.4544-15.7696z" fill="#F3B41B" p-id="1498"></path><path d="M755.2 457.8304c0-90.624-49.5616-169.6256-123.0336-211.5072 2.0992 2.4064 128.4608 155.6992 74.5984 280.9856-16.64 42.9568-49.2544 76.8512-116.7872 128.2048v91.4432h25.3952v-68.9152c82.6368-38.8608 139.8272-122.8288 139.8272-220.2112z" fill="#F3B41B" p-id="1499"></path><path d="M422.5536 510.9248h33.024v206.8992h20.48V510.9248h66.4576v206.8992h20.48V510.9248h32.7168c15.0016 0 28.0064-9.1136 33.1264-23.1936s0.9728-29.44-10.496-39.0656l-17.9712-15.0016c-10.5984-8.8576-24.9856-10.752-37.5296-4.9152s-20.3264 18.0736-20.3264 31.8976v29.7472H476.1088v-29.952c0-13.824-7.7824-26.0096-20.2752-31.8976-12.4928-5.8368-26.88-4.0448-37.4784 4.8128l-18.2784 15.2064c-11.5712 9.6256-15.7184 24.9344-10.5984 39.0656 5.0688 14.1824 18.0736 23.296 33.0752 23.296z m140.4416-50.2784c0-5.888 3.1744-10.8544 8.4992-13.3632 5.3248-2.5088 11.2128-1.7408 15.7184 2.048l17.9712 15.0016c7.3728 6.144 5.2224 14.08 4.4032 16.3328-0.8192 2.304-4.2496 9.728-13.8752 9.728h-32.7168v-29.7472z m-149.8624 3.6864l18.2784-15.2064a14.4384 14.4384 0 0 1 15.6672-2.048c5.3248 2.5088 8.4992 7.4752 8.4992 13.3632v29.952h-33.024c-9.6256 0-13.056-7.4752-13.8752-9.728-0.8192-2.2528-2.9184-10.1888 4.4544-16.3328z" fill="#387CE8" p-id="1500"></path><path d="M575.3344 953.6512H447.232c-39.5264 0-71.5776-32.0512-71.5776-71.5776v-141.2608c0-12.6976 10.2912-22.9376 22.9376-22.9376h225.3312c12.6976 0 22.9376 10.2912 22.9376 22.9376v141.2608c0.0512 39.5264-32 71.5776-71.5264 71.5776z" fill="#4DD6D6" p-id="1501"></path><path d="M646.912 882.0736v-141.2608c0-12.6976-10.2912-22.9376-22.9376-22.9376h-19.9168v165.6832s0.8704 70.0928-64.8192 70.0928h36.096c39.5264 0 71.5776-32.0512 71.5776-71.5776z" fill="#3BCCC8" p-id="1502"></path><path d="M581.6832 246.3744s-271.9744-54.7328-288.4608 245.248c23.0912-51.2512 37.4272-213.5552 288.4608-245.248z" fill="#F9DB85" p-id="1503"></path><path d="M403.2 938.3936a71.0144 71.0144 0 0 0 44.032 15.2064h49.3568V717.824H403.2v220.5696z" fill="#58DDDA" p-id="1504"></path><path d="M253.8496 613.3248a30.34624 30.34624 0 0 0-8.5504-9.2672c0.1024 0.2048 11.0592 25.3952 3.328 34.3552-7.7824 9.0112-25.088 19.456-32.1536 23.552l-26.4704 15.36s-15.6672 8.9088-32.256-4.4032a30.62784 30.62784 0 0 0 40.9088 9.0112l44.4928-26.4704c14.592-8.704 19.4048-27.5456 10.7008-42.1376zM214.6816 468.0704a30.69952 30.69952 0 0 0-18.688-28.4672s10.3424 12.0832 9.1648 31.7952c-1.1264 19.712-20.2752 27.1872-40.704 27.0848l19.2512 0.1024h0.2048c16.9472 0.0512 30.6688-13.6192 30.7712-30.5152zM257.536 321.1264c7.8848-13.3632 4.4544-30.3104-7.3728-39.68 0.3584 0.6656 12.0832 21.248 1.9456 36.0448-10.2912 15.0528-33.8432 14.5408-48.7936 7.2704l12.1344 7.168c4.9152 2.9184 10.2912 4.2496 15.5648 4.2496 10.5472 0.0512 20.7872-5.376 26.5216-15.0528zM372.8896 168.7552l-1.536-2.7136s2.816 29.2352-10.24 35.9424c-13.056 6.7072-32.6144 11.008-45.1584-9.1136l3.3792 5.9904a30.70976 30.70976 0 0 0 41.8304 11.7248c14.7968-8.2944 20.0192-27.0336 11.7248-41.8304zM540.672 143.36V91.5968c0-12.5952-7.5776-23.4496-18.4832-28.16 0.6144 0.4096 12.3392 8.3456 12.3392 35.584v49.5104s-2.1504 20.6848-24.576 25.5488c16.9984 0 30.72-13.7728 30.72-30.72zM724.3264 122.7264c0.1024 0.4096 2.9696 12.8512-6.912 30.0032-10.0352 17.408-29.6448 48.9984-29.6448 48.9984s-8.6528 16.0256-32.768 7.168c0.8704 0.6144 1.7408 1.1776 2.7136 1.6896a30.72 30.72 0 0 0 41.8304-11.7248l25.344-45.1072c5.5808-10.0352 4.9664-21.8624-0.5632-31.0272zM787.7632 336.2304c5.3248 0 10.7008-1.3824 15.616-4.2496l44.544-26.3168a30.72 30.72 0 0 0 10.8032-42.0864c-2.7136-4.5568-6.4-8.192-10.6496-10.752 0 0 15.5136 25.9584 3.8912 38.3488-8.2944 8.8576-54.8864 36.0448-54.8864 36.0448s-14.1824 9.728-34.3552-3.9936a30.63296 30.63296 0 0 0 25.0368 13.0048zM905.1648 443.136c0.1024 0.2048 11.7248 25.7536 2.2016 37.632-9.5744 11.8784-18.1248 10.6496-37.9904 10.6496s-49.408 1.7408-61.3376-8.5504a30.7712 30.7712 0 0 0 26.8288 15.7184h0.2048l51.7632-0.3072a30.71488 30.71488 0 0 0 30.5152-30.9248 30.79168 30.79168 0 0 0-12.1856-24.2176zM854.6304 631.2448c0.256 0.4096 14.5408 25.7536 3.072 38.0928-10.4448 11.2128-27.8528 16.8448-48.0256 6.3488l10.496 6.2464c4.9152 2.9184 10.3424 4.3008 15.6672 4.3008 10.496 0 20.6848-5.376 26.4192-15.0016 7.9872-13.5168 4.5056-30.6176-7.6288-39.9872z" fill="#F9832B" p-id="1505"></path><path d="M807.0656 602.6752a30.65344 30.65344 0 0 0-42.0864 10.7008c-6.1952 10.3936-5.4784 22.8864 0.6656 32.4096-4.9152-15.2576 1.0752-26.112 7.2704-32.4608 12.9024-15.36 39.936-7.168 39.936-7.168l-5.7856-3.4816zM845.7728 437.0944l-11.1104 0.0512a30.71488 30.71488 0 0 0-30.5152 30.9248c0.0512 10.1888 5.0688 19.1488 12.7488 24.6784-8.9088-15.36-5.4272-25.7536-4.3008-31.488 5.5808-19.5072 33.1776-24.1664 33.1776-24.1664zM772.096 279.04a30.72 30.72 0 0 0-10.8032 42.0864c4.608 7.8336 12.1856 12.8 20.4288 14.4384-36.6592-25.8048-6.7072-58.2144-6.7072-58.2144l-2.9184 1.6896zM688.8448 109.4144c-7.168 2.2528-13.568 7.1168-17.5616 14.2336l-25.344 45.1072c-8.2944 14.7968-3.072 33.536 11.7248 41.8304 3.1232 1.7408 6.4512 2.8672 9.8304 3.4304-28.4672-11.2128-17.9712-36.5568-17.9712-36.5568l39.3216-68.0448zM486.4512 144.9472v-46.8992c0-28.2624 23.552-37.1712 23.552-37.1712-16.9472 0-30.72 13.7728-30.72 30.72V143.36c0 16.9472 13.7728 30.72 30.72 30.72-24.3712-6.5024-23.552-29.1328-23.552-29.1328zM346.112 214.528c2.9696 0 5.9904-0.512 8.9088-1.3824-19.7632 1.4336-25.1392-13.1584-25.1392-13.1584s-1.9456-4.4032-23.1424-40.704c-19.8144-33.8432-2.6624-46.2848-0.256-47.7696-0.256 0.1536-0.512 0.256-0.768 0.3584a30.67904 30.67904 0 0 0-11.7248 41.8304l25.344 45.1072a30.57664 30.57664 0 0 0 26.7776 15.7184zM169.216 294.144c-14.592-20.7872 4.2496-42.496 4.5568-42.8544-5.5296 2.5088-10.3424 6.656-13.6704 12.288-8.6528 14.592-3.7888 33.4336 10.8544 42.0864l44.544 26.3168c2.5088 1.4848 5.12 2.56 7.7824 3.2256-39.5776-23.3984-50.0224-36.8128-54.0672-41.0624zM109.056 467.712c0-15.36 8.4992-27.136 8.4992-27.136a30.67392 30.67392 0 0 0-16.0256 26.7776c-0.1024 16.9472 13.568 30.8224 30.5152 30.9248l4.4544 0.0512c-21.2992-4.6592-27.4432-15.2064-27.4432-30.6176zM173.4656 625.408l-6.1952 3.6864c-14.592 8.6528-19.3536 27.5456-10.7008 42.0864a30.63808 30.63808 0 0 0 16.7936 13.4144c-33.0752-25.9072 0.1024-59.1872 0.1024-59.1872z" fill="#FCAD72" p-id="1506"></path></svg>